HIERARCHY
ROOT Hips
{
 OFFSET 0.000000 0.000000 0.000000
 CHANNELS 6 Xposition Yposition Zposition Yrotation Xrotation Zrotation
 JOINT Chest
 {
  OFFSET 0.000000 9.581000 -0.001100
  CHANNELS 3 Yrotation Xrotation Zrotation
  JOINT Chest2
  {
   OFFSET 0.000000 9.561100 0.002200
   CHANNELS 3 Yrotation Xrotation Zrotation
   JOINT Chest3
   {
    OFFSET 0.000000 9.521100 0.000000
    CHANNELS 3 Yrotation Xrotation Zrotation
    JOINT Chest4
    {
     OFFSET 0.000000 9.511400 0.000000
     CHANNELS 3 Yrotation Xrotation Zrotation
     JOINT Neck
     {
      OFFSET 0.000000 14.375100 0.000000
      CHANNELS 3 Yrotation Xrotation Zrotation
      JOINT Head
      {
       OFFSET 0.000000 8.901200 0.004600
       CHANNELS 3 Yrotation Xrotation Zrotation
       End Site
       {
        OFFSET 0.000000 16.962200 0.002400
       }
      }
     }
     JOINT RightCollar
     {
      OFFSET -2.920100 9.518800 0.000000
      CHANNELS 3 Yrotation Xrotation Zrotation
      JOINT RightShoulder
      {
       OFFSET -13.664500 0.000000 0.000000
       CHANNELS 3 Yrotation Xrotation Zrotation
       JOINT RightElbow
       {
        OFFSET 0.000000 -29.999200 0.000000
        CHANNELS 3 Yrotation Xrotation Zrotation
        JOINT RightWrist
        {
         OFFSET 0.000000 -24.253600 0.000000
         CHANNELS 3 Yrotation Xrotation Zrotation
         End Site
         {
          OFFSET 0.000000 -17.918900 0.000000
         }
        }
       }
      }
     }
     JOINT LeftCollar
     {
      OFFSET 2.920100 9.518800 0.000000
      CHANNELS 3 Yrotation Xrotation Zrotation
      JOINT LeftShoulder
      {
       OFFSET 13.664500 0.000000 0.000000
       CHANNELS 3 Yrotation Xrotation Zrotation
       JOINT LeftElbow
       {
        OFFSET 0.000000 -29.999200 0.000000
        CHANNELS 3 Yrotation Xrotation Zrotation
        JOINT LeftWrist
        {
         OFFSET 0.000000 -24.253600 0.000000
         CHANNELS 3 Yrotation Xrotation Zrotation
         End Site
         {
          OFFSET 0.000000 -17.918900 0.000000
         }
        }
       }
      }
     }
    }
   }
  }
 }
 JOINT RightHip
 {
  OFFSET -7.797300 0.005300 0.000500
  CHANNELS 3 Yrotation Xrotation Zrotation
  JOINT RightKnee
  {
   OFFSET 0.000000 -40.663400 -0.000500
   CHANNELS 3 Yrotation Xrotation Zrotation
   JOINT RightAnkle
   {
    OFFSET 0.000000 -39.523700 -0.000900
    CHANNELS 3 Yrotation Xrotation Zrotation
    JOINT RightToe
    {
     OFFSET 0.000000 -6.418000 14.485300
     CHANNELS 3 Yrotation Xrotation Zrotation
     End Site
     {
      OFFSET 0.000000 -1.465200 6.326400
     }
    }
   }
  }
 }
 JOINT LeftHip
 {
  OFFSET 7.797300 0.005300 0.000500
  CHANNELS 3 Yrotation Xrotation Zrotation
  JOINT LeftKnee
  {
   OFFSET 0.000000 -40.663400 -0.000500
   CHANNELS 3 Yrotation Xrotation Zrotation
   JOINT LeftAnkle
   {
    OFFSET 0.000000 -39.523700 -0.000900
    CHANNELS 3 Yrotation Xrotation Zrotation
    JOINT LeftToe
    {
     OFFSET 0.000000 -6.418000 14.485300
     CHANNELS 3 Yrotation Xrotation Zrotation
     End Site
     {
      OFFSET 0.000000 -1.465200 6.326400
     }
    }
   }
  }
 }
}
MOTION
Frames: 5
Frame Time: 0.008333
0.000000 86.422400 0.000000 0.000000 -5.767877 0.000000 0.000000 11.653817 0.000000 0.000000 -5.885947 0.000000 0.000000 -0.000000 0.000000 0.000000 -0.000000 0.000000 0.000000 12.528835 0.000000 0.000000 0.711642 0.000000 0.000000 -0.000000 0.000000 0.000000 0.000000 -90.000000 0.000000 -2.309062 0.000000 0.000000 2.309062 0.000000 0.000000 -0.000000 0.000000 0.000000 -0.000000 90.000000 0.000000 -2.309062 0.000000 0.000000 2.309062 0.000000 0.000000 8.520406 0.000000 0.000000 1.905762 0.000000 -0.000000 -4.658285 0.000000 0.000000 -0.000000 0.000000 0.000000 8.520406 0.000000 0.000000 1.905762 0.000000 -0.000000 -4.658285 0.000000 0.000000 -0.000000 0.000000
-18.370285 126.894008 19.837389 -174.070731 -47.540178 -4.636452 0.404829 26.642164 2.698123 0.010091 4.521762 0.387830 -0.046312 7.203591 0.738530 0.222360 21.801287 2.159201 8.671310 11.368137 5.756131 8.289957 -13.630069 4.328565 -0.329408 1.575546 2.901750 2.778357 -9.348388 -9.050822 -87.819536 -57.022254 136.165983 7.798828 17.541731 -0.935874 -11.152458 -0.117050 1.752526 14.227529 -16.513611 3.887947 66.615130 -15.715978 -85.373402 19.342480 -33.801886 35.909396 -20.895538 -15.665782 0.229833 -5.203913 67.169868 9.426323 14.002430 -10.838935 -4.151783 0.003775 -0.004109 0.001672 14.947656 -6.955976 1.253221 -176.267474 84.726286 178.831417 -11.871872 -14.229036 4.734445 0.000927 0.000948 0.000411
-18.369566 126.894062 19.836797 -174.083382 -47.536036 -4.623009 0.374650 26.643032 2.719532 0.007875 4.531624 0.391064 -0.058490 7.195500 0.747207 0.197089 21.801512 2.177339 8.675374 11.355796 5.660362 8.292691 -13.700015 4.236023 -0.308589 1.612376 2.875979 2.798092 -9.381594 -9.086857 -87.657570 -56.950514 136.076951 7.781391 17.551136 -0.961065 -11.065702 -0.102225 1.762927 14.653503 -16.535296 4.165038 66.489773 -15.601239 -85.383953 19.258331 -33.926053 35.544500 -20.888765 -15.668525 0.239644 -5.225165 67.158178 9.397355 13.989205 -10.840858 -4.161407 0.002309 -0.004351 0.001023 14.955157 -6.952493 1.254022 -176.234771 84.734009 178.862141 -11.866331 -14.240629 4.718648 0.001779 0.000613 0.000788
-18.368677 126.894054 19.836099 -174.095659 -47.530052 -4.609462 0.344913 26.637341 2.740557 -0.027178 4.534403 0.431845 -0.042358 7.189440 0.715532 0.173266 21.797800 2.196480 8.676249 11.354806 5.569190 8.298243 -13.758376 4.153522 -0.286572 1.656927 2.836752 2.789504 -9.388555 -9.074241 -87.596259 -56.971890 136.073357 7.718801 17.570344 -0.976025 -10.989299 -0.089338 1.751194 14.983286 -16.550170 4.481259 66.426947 -15.892310 -85.315897 19.024677 -34.042793 35.485156 -20.882044 -15.673428 0.244644 -5.242763 67.147334 9.375413 13.991378 -10.836784 -4.174026 0.000314 -0.005165 0.000139 14.962285 -6.949551 1.256783 -176.155812 84.743643 178.940798 -11.873563 -14.255850 4.703333 0.001616 -0.000550 0.000716
-18.368081 126.894167 19.835117 -174.103064 -47.523800 -4.596919 0.320228 26.629403 2.762205 -0.016642 4.536291 0.402272 -0.060195 7.181468 0.758810 0.152767 21.795305 2.196782 8.655734 11.276491 5.534943 8.321002 -13.724692 4.061547 -0.270884 1.684357 2.790606 2.747445 -9.330648 -8.985441 -87.599822 -57.040032 136.155791 7.675478 17.609987 -0.999362 -10.949577 -0.083228 1.716810 15.204858 -16.567420 4.847389 66.476492 -16.518524 -85.186594 18.734823 -34.087879 35.646743 -20.878220 -15.678396 0.247182 -5.260819 67.138278 9.355805 13.986468 -10.836392 -4.194352 -0.003114 -0.006856 -0.001380 14.966398 -6.950209 1.256760 -176.074676 84.750508 179.022234 -11.888761 -14.255418 4.704455 0.001041 -0.000408 0.000461
